HIERARCHY
ROOT Hips
{
	OFFSET 0.000000 0.000000 0.000000
	CHANNELS 6 Xposition Yposition Zposition Xrotation Yrotation Zrotation
	JOINT LeftUpLeg_virtual
	{
		OFFSET 0.000000 0.000000 0.000000
		CHANNELS 3 Xrotation Yrotation Zrotation
		JOINT LeftUpLeg
		{
			OFFSET 13.026900 -6.336304 -1.092800
			CHANNELS 3 Xrotation Yrotation Zrotation
			JOINT LeftLeg
			{
				OFFSET 0.524474 -46.096886 9.782700
				CHANNELS 3 Xrotation Yrotation Zrotation
				JOINT LeftFoot
				{
					OFFSET -0.524474 -53.427422 -12.948200
					CHANNELS 3 Xrotation Yrotation Zrotation
					JOINT LeftToeBase
					{
						OFFSET 0.192200 -14.009700 16.364100
						CHANNELS 3 Xrotation Yrotation Zrotation
						JOINT LeftToe_End
						{
							OFFSET -1.784700 -0.561700 9.474800
							CHANNELS 3 Xrotation Yrotation Zrotation
							End Site
							{
								OFFSET 0 0 0
							}
						}
					}
				}
			}
		}
	}
	JOINT RightUpLeg_virtual
	{
		OFFSET 0.000000 0.000000 0.000000
		CHANNELS 3 Xrotation Yrotation Zrotation
		JOINT RightUpLeg
		{
			OFFSET -12.883000 -6.336304 -1.092800
			CHANNELS 3 Xrotation Yrotation Zrotation
			JOINT RightLeg
			{
				OFFSET -0.524587 -46.096825 9.782800
				CHANNELS 3 Xrotation Yrotation Zrotation
				JOINT RightFoot
				{
					OFFSET 0.524587 -53.427383 -12.948300
					CHANNELS 3 Xrotation Yrotation Zrotation
					JOINT RightToeBase
					{
						OFFSET -0.192200 -14.009700 16.364100
						CHANNELS 3 Xrotation Yrotation Zrotation
						JOINT RightToe_End
						{
							OFFSET 1.784700 -0.561700 9.474800
							CHANNELS 3 Xrotation Yrotation Zrotation
							End Site
							{
								OFFSET 0 0 0
							}
						}
					}
				}
			}
		}
	}
	JOINT Spine_virtual
	{
		OFFSET 0.000000 0.000000 0.000000
		CHANNELS 3 Xrotation Yrotation Zrotation
		JOINT Spine
		{
			OFFSET 0.072000 7.257294 -0.789700
			CHANNELS 3 Xrotation Yrotation Zrotation
			JOINT Spine1
			{
				OFFSET 0.000000 12.508769 -0.658067
				CHANNELS 3 Xrotation Yrotation Zrotation
				JOINT Spine1_split
				{
					OFFSET 0.000000 12.508769 -0.658067
					CHANNELS 3 Xrotation Yrotation Zrotation
					JOINT Spine2
					{
						OFFSET 0.000000 12.508769 -0.658067
						CHANNELS 3 Xrotation Yrotation Zrotation
						JOINT Neck_virtual
						{
							OFFSET 0.000000 0.000000 0.000000
							CHANNELS 3 Xrotation Yrotation Zrotation
							JOINT Neck
							{
								OFFSET 0.000000 14.033295 7.520400
								CHANNELS 3 Xrotation Yrotation Zrotation
								JOINT Head
								{
									OFFSET 0.000000 8.198502 5.703100
									CHANNELS 3 Xrotation Yrotation Zrotation
									JOINT HeadTop_End
									{
										OFFSET 0.000000 17.760803 13.332701
										CHANNELS 3 Xrotation Yrotation Zrotation
										End Site
										{
											OFFSET 0 0 0
										}
									}
								}
							}
						}
						JOINT LeftShoulder_virtual
						{
							OFFSET 0.000000 0.000000 0.000000
							CHANNELS 3 Xrotation Yrotation Zrotation
							JOINT LeftShoulder
							{
								OFFSET 6.292450 5.785301 -0.669000
								CHANNELS 3 Xrotation Yrotation Zrotation
								JOINT LeftShoulder_split
								{
									OFFSET 6.292450 5.785301 -0.669000
									CHANNELS 3 Xrotation Yrotation Zrotation
									JOINT LeftArm
									{
										OFFSET 13.907140 -6.093903 1.965100
										CHANNELS 3 Xrotation Yrotation Zrotation
										JOINT LeftForeArm
										{
											OFFSET 34.140198 0.000000 0.000000
											CHANNELS 3 Xrotation Yrotation Zrotation
											JOINT LeftHand
											{
												OFFSET 40.960209 0.000000 0.000000
												CHANNELS 3 Xrotation Yrotation Zrotation
												End Site
												{
													OFFSET 0 0 0
												}
											}
										}
									}
								}
							}
						}
						JOINT RightShoulder_virtual
						{
							OFFSET 0.000000 0.000000 0.000000
							CHANNELS 3 Xrotation Yrotation Zrotation
							JOINT RightShoulder
							{
								OFFSET -6.292450 5.785301 -0.669000
								CHANNELS 3 Xrotation Yrotation Zrotation
								JOINT RightShoulder_split
								{
									OFFSET -6.292450 5.785301 -0.669000
									CHANNELS 3 Xrotation Yrotation Zrotation
									JOINT RightArm
									{
										OFFSET -13.907140 -6.093903 1.965100
										CHANNELS 3 Xrotation Yrotation Zrotation
										JOINT RightForeArm
										{
											OFFSET -34.140198 0.000000 0.000000
											CHANNELS 3 Xrotation Yrotation Zrotation
											JOINT RightHand
											{
												OFFSET -40.960209 0.000000 0.000000
												CHANNELS 3 Xrotation Yrotation Zrotation
												End Site
												{
													OFFSET 0 0 0
												}
											}
										}
									}
								}
							}
						}
					}
				}
			}
		}
	}
}
MOTION
Frames: 4
Frame Time: 0.03333333
0.017877 131.329941 -0.550171 0.000000 0.000000 0.000000 -90.670549 -2.014199 1.606677 -3.822679 20.400670 15.188893 3.044210 1.349499 1.572754 22.676563 29.830704 -25.442140 -2.160641 -0.000005 0.000002 0.000000 0.000000 0.000000 -90.670549 -2.014199 1.606677 -5.382392 -20.121464 -17.065928 2.331706 -5.559513 -4.763161 33.481560 -29.987256 30.753268 -5.386649 -0.000011 -0.000036 0.000000 0.000000 0.000000 -90.670549 -2.014199 1.606677 0.643908 -0.182236 -0.685213 0.762693 0.011071 -0.441134 0.000000 0.000000 0.000000 0.000000 0.000000 0.000000 0.789608 0.004150 -0.423981 -4.673461 4.186578 -8.239874 4.245597 8.442077 -14.206924 0.000000 0.000000 0.000000 0.789608 0.004150 -0.423981 0.831451 -5.985262 -3.778117 0.000000 0.000000 0.000000 44.068521 -39.822714 -34.595991 -0.000176 -83.311294 -0.000166 0.000000 0.000000 0.000000 0.789608 0.004150 -0.423981 0.517164 4.195567 2.972749 0.000000 0.000000 0.000000 -4.397028 2.514823 83.955148 -179.999964 50.609810 179.999978 0.000000 0.000000 0.000000 
0.028269 131.329285 -0.548874 0.000000 0.000000 0.000000 -90.685023 -2.005443 1.600897 -3.820678 20.405310 15.189873 3.053289 1.327573 1.572979 22.664883 29.827402 -25.428046 -2.262165 -0.000000 0.000018 0.000000 0.000000 0.000000 -90.685023 -2.005443 1.600897 -5.361864 -20.122335 -17.066870 2.329237 -5.569758 -4.763557 33.481802 -29.986931 30.769449 -5.318790 -0.000033 0.000010 0.000000 0.000000 0.000000 -90.685023 -2.005443 1.600897 0.644572 -0.182886 -0.671046 0.775535 0.010199 -0.441929 0.000000 0.000000 0.000000 0.000000 0.000000 0.000000 0.799318 0.002338 -0.423854 -4.701087 4.246303 -8.217696 5.074996 8.483805 -14.697203 0.000000 0.000000 0.000000 0.799318 0.002338 -0.423854 0.821167 -6.021021 -3.761135 0.000000 0.000000 0.000000 44.049485 -39.813005 -34.639055 0.000332 -83.307162 0.000342 0.000000 0.000000 0.000000 0.799318 0.002338 -0.423854 0.506630 4.242360 2.977801 0.000000 0.000000 0.000000 -4.368376 2.476189 83.932834 -179.999964 50.586498 179.999978 0.000000 0.000000 0.000000 
0.040427 131.327637 -0.543777 0.000000 0.000000 0.000000 -90.699687 -1.996333 1.593847 -3.821878 20.407705 15.191707 3.072578 1.290288 1.573390 22.660942 29.818471 -25.431403 -2.364387 0.000008 0.000008 0.000000 0.000000 0.000000 -90.699687 -1.996333 1.593847 -5.347384 -20.121830 -17.066696 2.334272 -5.566735 -4.764415 33.490538 -29.986603 30.782238 -5.250981 0.000012 -0.000011 0.000000 0.000000 0.000000 -90.699687 -1.996333 1.593847 0.644975 -0.183378 -0.652656 0.790639 0.010042 -0.442317 0.000000 0.000000 0.000000 0.000000 0.000000 0.000000 0.802097 0.001533 -0.423876 -4.784980 4.319757 -8.193457 6.265804 8.513244 -15.381159 0.000000 0.000000 0.000000 0.802097 0.001533 -0.423876 0.814094 -6.042073 -3.750279 0.000000 0.000000 0.000000 44.046322 -39.816216 -34.649253 0.000057 -83.299403 0.000077 0.000000 0.000000 0.000000 0.802097 0.001533 -0.423876 0.495737 4.266201 2.985394 0.000000 0.000000 0.000000 -4.348697 2.459899 83.910301 179.999991 50.573524 -179.999978 0.000000 0.000000 0.000000 
0.053468 131.325867 -0.535408 0.000000 0.000000 0.000000 -90.708450 -1.987055 1.585669 -3.836988 20.407418 15.202736 3.103773 1.292329 1.573820 22.645125 29.802294 -25.419734 -2.464157 0.000004 -0.000006 0.000000 0.000000 0.000000 -90.708450 -1.987055 1.585669 -5.339466 -20.119692 -17.069177 2.344241 -5.585187 -4.764960 33.493885 -29.985517 30.794553 -5.185675 0.000023 -0.000034 0.000000 0.000000 0.000000 -90.708450 -1.987055 1.585669 0.645345 -0.183686 -0.631500 0.799679 0.010187 -0.442380 0.000000 0.000000 0.000000 0.000000 0.000000 0.000000 0.802059 0.001556 -0.424020 -4.906906 4.398964 -8.174130 7.457214 8.566883 -16.120722 0.000000 0.000000 0.000000 0.802059 0.001556 -0.424020 0.812168 -6.027385 -3.751179 0.000000 0.000000 0.000000 44.073042 -39.845565 -34.601991 0.000162 -83.285660 0.000143 0.000000 0.000000 0.000000 0.802059 0.001556 -0.424020 0.487826 4.245594 2.996222 0.000000 0.000000 0.000000 -4.351181 2.486595 83.885282 -179.999923 50.580426 179.999937 0.000000 0.000000 0.000000 
